<?xml version="1.0" encoding="utf-8"?>
<!-- Generator: Adobe Illustrator 21.0.0, SVG Export Plug-In . SVG Version: 6.00 Build 0)  -->
<svg version="1.1" id="emphase" xmlns="http://www.w3.org/2000/svg" xmlns:xlink="http://www.w3.org/1999/xlink" x="0px" y="0px"
	 viewBox="0 0 1001 293.7" style="enable-background:new 0 0 1001 293.7;" xml:space="preserve">
<g>
	<path d="M167.8,177h-30.9c-9.3,0-16.9-7.6-16.9-16.9v-22.9c0-9.3,7.6-16.9,16.9-16.9h17.6c3.7,0,6.7,3,6.7,6.7v0
		c0,3.7-3,6.7-6.7,6.7H148c-8.3,0-15,6.7-15,15v0c0,8.3,6.7,15,15,15h7c19.4,0,36-15.2,36.4-34.6c0.4-19.8-15.6-35.9-35.2-35.9
		h-22.7c-24.3,0-44,19.7-44,44v23c0,24.3,19.7,44,44,44l34.3,0c7.5,0,13.6-6.1,13.6-13.6v0C181.3,183.1,175.3,177,167.8,177z"/>
	<path d="M887.9,177H857c-9.3,0-16.9-7.6-16.9-16.9v-22.9c0-9.3,7.6-16.9,16.9-16.9h17.6c3.7,0,6.7,3,6.7,6.7v0c0,3.7-3,6.7-6.7,6.7
		h-6.4c-8.3,0-15,6.7-15,15v0c0,8.3,6.7,15,15,15h7c19.4,0,36-15.2,36.4-34.6c0.4-19.8-15.6-35.9-35.2-35.9h-22.7
		c-24.3,0-44,19.7-44,44v23c0,24.3,19.7,44,44,44l34.3,0c7.5,0,13.6-6.1,13.6-13.6v0C901.5,183.1,895.4,177,887.9,177z"/>
	<path d="M662.9,93.2l-38.2,0c-7.5,0-13.6,6.1-13.6,13.6v0c0,7.5,6.1,13.6,13.6,13.6l39.9,0c4.7,0,8.5,3.8,8.5,8.5v39.7
		c0,4.6-3.8,8.4-8.4,8.4h-26.3c-4.9,0-8.2-5.1-6.1-9.6l7.4-16.1c3.3-7.2,1-16.1-5.9-20c-7.9-4.5-17.7-1.1-21.3,6.9l-8.2,18.4
		c-10,22.4,6.3,47.7,30.9,47.7h32.2c20.1,0,36.4-16.3,36.4-36.4v-34C703.5,111.4,685.4,93.2,662.9,93.2z"/>
	<path d="M517.9,148.6C517.9,148.6,517.9,148.6,517.9,148.6v-17.1c0-4.3,2.9-8.3,7.6-9.1c4.2-0.8,11.1-1.8,18-1.8
		c13.5,0,21,8.7,21,18.1v51.9c0,8.4,6.8,15.1,15.1,15.1h0c8.4,0,15.1-6.8,15.1-15.1l0-53.8c0-23.6-18.4-45.3-44.9-45.3
		c-16,0-23,3.8-28.2,3.8c-1.9,0-3.8-1.3-3.8-3.8V53.3c0-8.3-6.7-15-15-15h0c-8.4,0-15.3,6.8-15.3,15.3l0,136.9
		c0,8.4,6.8,15.1,15.1,15.1h0c8.4,0,15.1-6.8,15.1-15.1V148.6z"/>
	<path d="M425.2,91.4c-29.4,0-53.6,17-53.6,47l0,104.7c0,8.4,6.8,15.1,15.1,15.1c8.4,0,15.1-6.8,15.1-15.1l0-34.4l0-2.7
		c0-2.5,2.1-4.6,4.9-4.2c2.3,0.4,12.2,3.8,27.3,3.8c26.4-0.1,44.7-21.8,44.7-45.3c0,0,0-21.9,0-21.9
		C478.8,110.1,456.3,91.4,425.2,91.4z M448.5,158.5c0,9.3-7.5,18.1-21,18.1c-7,0-13.8-1-18-1.8c-4.6-0.9-7.6-4.9-7.6-9.1v-17.1
		c0,0,0,0,0,0v-8.2c0-15.3,11.7-20.5,23.3-20.5c14.9,0,23.3,7.7,23.3,20.5C448.5,140.4,448.5,150.3,448.5,158.5z"/>
	<path d="M198.1,135.4c0-26.5,20.9-43.9,46.2-43.9h0.3c12.2,0,23.4,4,31.7,11.2c1.1,1,2.5,1.6,4.1,1.6c1.6,0,3.1-0.6,4.1-1.7
		c8.3-7.2,19.4-11.2,31.7-11.2h0.3c25.3,0,46.2,17.3,46.2,43.9v2.9v52.4c0,8.9-7.6,15.9-16.6,15.1c-7.9-0.8-13.8-7.3-13.8-15.2
		v-53.9c0-8.7-7.9-16.4-18.3-16.4c-10.4,0-18.4,7.2-18.4,16.4v54c0,8.9-7.6,15.9-16.6,15.1c-7.9-0.8-13.7-7.8-13.7-15.7v-53.3
		c0-8.7-8-16.4-18.4-16.4c-10.4,0-18.4,7.7-18.4,16.4c0,11.6,0,54,0,54c0,8.9-7.6,15.9-16.6,15.1c-7.9-0.8-13.7-7.8-13.7-15.7V135.4
		"/>
	<path d="M723.9,204.3c-7.5,0-13.6-6.1-13.6-13.6v0c0-7.5,6.1-13.6,13.6-13.6l43.1,0c3.7,0,6.7-3,6.7-6.7l0,0c0-3.7-3-6.7-6.7-6.7
		l-20.2,0c-19.4,0-36-15.2-36.4-34.6c-0.4-19.8,15.6-36,35.2-36h34.7c7.5,0,13.6,6.2,13.6,13.7v0c0,7.5-6.1,13.6-13.6,13.6h-33
		c-3.7,0-6.7,3-6.7,6.7v0c0,3.7,3,6.7,6.7,6.7l20.2,0c19.4,0,36,15.2,36.4,34.6c0.4,19.8-15.6,35.9-35.2,35.9L723.9,204.3z"/>
</g>
</svg>
