<?xml version="1.0" encoding="utf-8"?>
<!-- Generator: Adobe Illustrator 21.0.0, SVG Export Plug-In . SVG Version: 6.00 Build 0)  -->
<svg version="1.1" id="emphase" xmlns="http://www.w3.org/2000/svg" xmlns:xlink="http://www.w3.org/1999/xlink" x="0px" y="0px"
	 viewBox="0 0 293.7 293.7" style="enable-background:new 0 0 293.7 293.7;" xml:space="preserve">
<g>
	<path d="M104.2,167.5H81.4c-6.9,0-12.5-5.6-12.5-12.5v-16.8c0-6.9,5.6-12.5,12.5-12.5l12.9,0c2.7,0,4.9,2.2,4.9,4.9v0
		c0,2.7-2.2,4.9-4.9,4.9l-4.7,0c-6.1,0-11.1,4.9-11.1,11.1v0c0,6.1,4.9,11.1,11.1,11.1h5.2c14.3,0,26.5-11.2,26.8-25.5
		c0.3-14.6-11.5-26.4-25.9-26.4H78.9c-17.9,0-32.4,14.5-32.4,32.4v16.9c0,17.9,14.5,32.4,32.4,32.4h25.3c5.5,0,10-4.5,10-10v0
		C114.1,172,109.7,167.5,104.2,167.5z"/>
	<path d="M126.5,136.9c0-19.5,15.4-32.3,34-32.3h0.3c9,0,17.3,3,23.4,8.3c0.8,0.7,1.8,1.2,3,1.2c1.2,0,2.3-0.5,3-1.2
		c6.1-5.3,14.3-8.2,23.3-8.2h0.3c18.6,0,34,12.8,34,32.3v2.1v38.6c0,6.5-5.6,11.7-12.3,11.1c-5.8-0.6-10.2-5.3-10.2-11.2v-39.7
		c0-6.4-5.8-12.1-13.4-12.1c-7.6,0-13.6,5.3-13.6,12.1v39.8c0,6.5-5.6,11.7-12.3,11.1c-5.8-0.6-10.1-5.8-10.1-11.6v-39.3
		c0-6.4-5.9-12.1-13.5-12.1c-7.6,0-13.6,5.6-13.6,12.1c0,8.6,0,39.8,0,39.8c0,6.5-5.6,11.7-12.3,11.1c-5.8-0.6-10.1-5.8-10.1-11.6
		V136.9"/>
</g>
</svg>
