<?xml version="1.0" encoding="iso-8859-1"?>
<!-- Generator: Adobe Illustrator 21.0.0, SVG Export Plug-In . SVG Version: 6.00 Build 0)  -->
<svg version="1.1" id="Layer_1" xmlns="http://www.w3.org/2000/svg" xmlns:xlink="http://www.w3.org/1999/xlink" x="0px" y="0px"
	 viewBox="0 0 728 205" style="enable-background:new 0 0 728 205;" xml:space="preserve">
<g>
	<polygon style="fill:#010101;" points="138.197,55.58 138.197,55.58 138.197,32.82 107.199,10.127 41.711,10.127 32.077,20.784 
		32.077,55.58 	"/>
	<polygon style="fill:#010101;" points="11.944,119.54 20.78,131.441 83.201,131.441 83.201,91.247 138.197,91.247 138.197,61.868 
		32.562,61.868 11.944,90.03 	"/>
	<polygon style="fill:#010101;" points="21.373,145.729 28.576,153.697 28.576,186.214 41.79,195.887 71.299,195.887 
		83.201,187.052 83.201,137.242 21.373,137.242 	"/>
	<rect x="88.938" y="96.655" style="fill:#010101;" width="49.26" height="34.787"/>
	<polygon style="fill:#010101;" points="163.769,32.82 144.502,32.82 144.502,137.242 88.938,137.242 88.938,187.052 
		100.84,195.887 145.719,195.887 173.881,175.27 173.881,42.933 	"/>
	<polygon style="fill:#010101;" points="468.351,68.097 529.567,68.097 552.031,46.015 552.031,10.388 434.431,10.388 
		409.351,38.127 409.351,168.356 434.431,196.096 552.031,196.096 552.031,160.465 529.567,138.195 468.351,138.195 
		465.351,135.409 465.351,131.239 507.103,131.239 529.567,109.757 529.567,75.097 465.351,75.097 465.351,71.03 	"/>
	<path style="fill:#010101;" d="M378.538,130.199L329.62,10.388h-72.008l-48.918,119.812v21.216l-18.401,18.057v26.623h39.476
		h14.587h39.476v-26.623l-17.34-17.015v-8.75l18.359,16.899h17.53l18.359-16.899v9.241L303.9,169.472v26.623h39.476h14.587h39.476
		v-26.623l-18.902-18.548V130.199z M295.992,95.428h-4.752l-6.448-3.348l6.411-17.693h4.824l6.412,17.693L295.992,95.428z"/>
	<path style="fill:#010101;" d="M652.547,66.901c6.142,10.918,9.495,23.49,9.495,36.34c0,12.85-3.353,25.422-9.495,36.341H617.25
		c-6.142-10.919-9.495-23.491-9.495-36.341c0-12.847,3.352-25.417,9.497-36.34H652.547 M680.025,10.388H589.77l-1.024,1.017
		c-24.143,23.938-37.991,57.411-37.991,91.837c0,34.426,13.848,67.9,37.991,91.838l1.024,1.017h90.255l1.025-1.017
		c24.143-23.937,37.991-57.41,37.991-91.838c0-34.426-13.848-67.9-37.991-91.837L680.025,10.388L680.025,10.388z"/>
</g>
<g>
</g>
<g>
</g>
<g>
</g>
<g>
</g>
<g>
</g>
<g>
</g>
</svg>
