<?xml version="1.0" encoding="iso-8859-1"?>
<!-- Generator: Adobe Illustrator 21.0.0, SVG Export Plug-In . SVG Version: 6.00 Build 0)  -->
<svg version="1.1" id="SymbolFont_1_" xmlns="http://www.w3.org/2000/svg" xmlns:xlink="http://www.w3.org/1999/xlink" x="0px"
	 y="0px" viewBox="0 0 1001.035 293.744" style="enable-background:new 0 0 1001.035 293.744;" xml:space="preserve">
<g id="SymbolFont">
	<g>
		<path d="M878.141,129.262h-13.942c-2.137,0-3.869-1.732-3.869-3.87l0.006-31.237c0.001-5.965-4.834-10.802-10.8-10.802h0
			c-5.964,0-10.8,4.835-10.8,10.8v90.924c0,13.516,8.64,23.761,27.436,23.761c1.576,0,9.784-0.017,11.252-0.014
			c5.521,0.014,10.261-4.426,10.261-9.897s-4.705-10.278-10.261-10.278h-12.508c-2.539,0-4.597-2.058-4.596-4.597l0.006-31.767
			c0-2.136,1.732-3.868,3.869-3.868h13.947c5.29,0,9.578-4.288,9.578-9.578v0C887.719,133.55,883.431,129.262,878.141,129.262z"/>
		<path d="M793.057,128.105c-19.986,0-37.862,11.906-37.862,34.251v35.703c0,5.91,4.791,10.7,10.7,10.7c5.91,0,10.7-4.791,10.7-10.7
			V163.9c0-11.542,8.355-15.483,16.462-15.483c8.106,0,16.461,4.591,16.461,15.483v34.159c0,5.91,4.791,10.7,10.7,10.7
			c5.909,0,10.7-4.791,10.7-10.7v-35.703C830.918,139.809,813.827,128.105,793.057,128.105z"/>
		<path d="M708.273,128.105c-19.986,0-37.862,11.906-37.862,34.251v12.152c0,22.547,17.091,34.251,37.862,34.251
			c19.986,0,37.862-11.906,37.862-34.251v-12.152C746.135,139.809,729.044,128.105,708.273,128.105z M724.735,172.992
			c0,11.542-8.355,15.483-16.461,15.483c-8.106,0-16.461-4.591-16.461-15.483V163.9c0-11.542,8.355-15.483,16.461-15.483
			c8.106,0,16.461,4.591,16.461,15.483V172.992z"/>
		<path d="M656.746,138.852h-28.141c-2.424,0-4.389-1.964-4.39-4.388l-0.014-27.015c-0.002-3.35,2.713-6.066,6.063-6.066l39.64,0
			c4.909,0,9.329-3.603,9.721-8.496c0.421-5.253-3.548-9.73-8.71-10.009c-8.268-0.447-23.559-1.012-40.863-1.012
			c-18.796,0-27.436,10.245-27.436,23.761v91.961c0,5.641,4.124,10.679,9.74,11.215c6.442,0.615,11.862-4.435,11.862-10.75v-35.653
			c0-2.425,1.966-4.391,4.391-4.391h27.725c5.002,0,9.47-3.657,9.945-8.637C666.824,143.658,662.347,138.852,656.746,138.852z"/>
		<path d="M585.229,188.65h-7.627c-2.538,0-4.595-2.059-4.593-4.597l0.016-89.898c0.001-5.965-4.834-10.802-10.8-10.802
			c-5.965,0-10.8,4.835-10.8,10.8v90.924c0,13.516,8.64,23.761,27.436,23.761c1.577,0,5.44-0.014,6.908-0.014
			c4.917,0,9.755-4.643,9.755-9.886S591.009,188.65,585.229,188.65z"/>
		<path d="M506.484,128.105c-19.986,0-37.862,11.906-37.862,34.251v12.152c0,22.547,17.091,34.251,37.862,34.251
			c19.986,0,37.862-11.906,37.862-34.251v-12.152C544.346,139.809,527.255,128.105,506.484,128.105z M522.945,172.992
			c0,11.542-8.355,15.483-16.461,15.483c-8.106,0-16.461-4.591-16.461-15.483V163.9c0-11.542,8.355-15.483,16.461-15.483
			c8.106,0,16.461,4.591,16.461,15.483V172.992z"/>
		<path d="M462.429,168.37c0-22.488-10.162-40.314-33.606-40.314c-7.337,0-13.322,1.45-16.86,2.575
			c-1.732,0.551-3.858-0.719-3.858-2.536V94.153c0-5.965-4.479-10.8-10.444-10.8h-0.156c-5.965,0-10.8,4.835-10.8,10.8v74.216
			c0,0.02,0.002,0.04,0.002,0.06l-0.003,0.002v6.076c0,22.547,17.091,34.251,37.862,34.251c21.964,0,37.862-14.235,37.862-34.251
			v-6.076l-0.002-0.001C462.427,168.41,462.429,168.39,462.429,168.37z M441.028,173.167c0,9.542-6.949,15.483-16.461,15.483
			c-8.106,0-16.461-4.591-16.461-15.483v-4.735c0-0.008,0-0.014,0-0.022v-12.924c0-2.718,2.035-4.72,4.649-5.464
			c3.78-1.075,7.203-1.605,12.441-1.605c9.196,0,15.833,3.661,15.833,19.993C441.028,168.418,441.028,173.167,441.028,173.167z"/>
		<path d="M344.526,128.105c-9.129,0-16.451,3.935-21.603,8.854c-1.316,1.256-3.342,1.26-4.66,0.006
			c-5.175-4.92-12.406-8.86-21.173-8.86c-24.703,0-34.418,13.523-34.418,33.007v36.537c0,5.589,4.086,10.58,9.65,11.11
			c6.382,0.608,11.751-4.394,11.751-10.65c0,0,0-28.673,0-36.883c0-8.21,5.687-12.833,13.018-12.833s13.018,4.624,13.018,12.833
			v36.423c0,5.589,4.086,10.58,9.65,11.11c6.382,0.609,11.751-4.394,11.751-10.65c0,0-0.009-36.791-0.01-36.89l0.01,0.007
			c0-8.21,5.687-12.833,13.017-12.833c7.331,0,13.018,4.624,13.018,12.833v36.423c0,5.589,4.086,10.579,9.649,11.11
			c6.382,0.609,11.752-4.393,11.752-10.65v-36.998C378.945,141.628,368.245,128.105,344.526,128.105z"/>
		<path d="M242.897,127.802c-5.661,0.54-9.819,5.618-9.819,11.305v32.911c0,8.318-6.429,16.632-17.533,16.632
			c-8.997,0-15.73-6.343-15.73-16.632c0-10.665,1.551-24.703,2.373-32.715c0.64-6.241-4.313-11.645-10.609-11.551
			c-5.446,0.082-9.817,4.574-10.34,9.995c-0.797,8.259-2.107,20.26-2.107,32.907c0,22.49,12.755,38.198,33.961,38.198
			c7.979,0,13.758-2.074,16.99-3.645c1.388-0.674,3.187,0.318,3.187,1.861v7.746c0,6.477-3.604,10.626-11.688,10.626h-21.767
			c-5.463,0-9.892,4.429-9.892,9.892s4.429,9.892,9.892,9.892h24.77c17.215,0,30.27-9.454,30.27-30.41v-76.176
			C254.855,132.273,249.391,127.183,242.897,127.802z"/>
		<path d="M147.702,135.757l-12.927-5.521c-11.394-5.248-15.683-8.341-15.683-15.251c0-6.674,7.277-12.358,16.515-12.358
			c6.329,0,14.217,1.97,18.595,3.133c4.671,1.241,9.527-1.151,11.434-5.592c2.156-5.021-0.228-10.815-5.277-12.906
			c-14.586-6.039-36.645-8.199-51.045,3.326c-8.61,6.887-12.358,16.226-12.358,26.345c0,14.395,9.178,24.305,23.061,30.405
			c5.456,2.401,8.98,3.831,14.203,6.113c14.372,6.278,16.533,11.774,16.533,19.335c0,10.718-11.334,14.773-24.073,14.773
			c-7.893,0-16.354-2.275-20.968-3.617c-4.621-1.344-9.473,1.106-11.309,5.657c-1.933,4.79,0.101,10.334,4.686,12.517
			c6.25,2.976,17.207,6.739,27.78,6.736c27.956-0.007,46.028-15.071,46.028-38.637C172.897,150.9,161.074,141.689,147.702,135.757z"
			/>
	</g>
</g>
</svg>
