<?xml version="1.0" encoding="iso-8859-1"?>
<!-- Generator: Adobe Illustrator 21.0.0, SVG Export Plug-In . SVG Version: 6.00 Build 0)  -->
<svg version="1.1" id="SymbolFont_1_" xmlns="http://www.w3.org/2000/svg" xmlns:xlink="http://www.w3.org/1999/xlink" x="0px"
	 y="0px" viewBox="0 0 293.744 293.744" style="enable-background:new 0 0 293.744 293.744;" xml:space="preserve">
<g id="SF">
	<g>
		<path id="f_8_" d="M211.212,138.852H183.07c-2.424,0-4.389-1.964-4.39-4.388l-0.014-27.015c-0.002-3.35,2.713-6.066,6.063-6.066
			l39.64,0c4.909,0,9.329-3.603,9.721-8.496c0.421-5.253-3.548-9.73-8.71-10.009c-8.268-0.447-23.559-1.012-40.863-1.012
			c-18.795,0-27.436,10.245-27.436,23.761l0,91.961c0,5.641,4.124,10.679,9.74,11.215c6.442,0.615,11.862-4.435,11.862-10.75
			v-35.653c0-2.425,1.966-4.391,4.391-4.391H210.8c5.002,0,9.47-3.657,9.945-8.637C221.289,143.658,216.812,138.852,211.212,138.852
			z"/>
		<path id="S_8_" d="M123.652,135.757l-12.927-5.521c-11.394-5.248-15.683-8.341-15.683-15.251c0-6.674,7.277-12.358,16.515-12.358
			c6.33,0,14.217,1.97,18.595,3.133c4.671,1.241,9.527-1.151,11.434-5.592c2.156-5.021-0.228-10.815-5.277-12.906
			c-14.586-6.039-36.645-8.199-51.045,3.326c-8.61,6.887-12.358,16.226-12.358,26.345c0,14.395,9.178,24.305,23.061,30.405
			c5.456,2.401,8.98,3.831,14.203,6.113c14.372,6.278,16.533,11.774,16.533,19.335c0,10.718-11.334,14.773-24.073,14.773
			c-7.893,0-16.354-2.275-20.968-3.617c-4.621-1.344-9.473,1.106-11.309,5.657c-1.933,4.79,0.101,10.334,4.686,12.517
			c6.25,2.976,17.207,6.739,27.78,6.736c27.956-0.007,46.028-15.071,46.028-38.637C148.846,150.9,137.023,141.689,123.652,135.757z"
			/>
	</g>
</g>
</svg>
